<?xml version="1.0" standalone="no"?>
<!DOCTYPE svg PUBLIC "-//W3C//DTD SVG 20010904//EN"
 "http://www.w3.org/TR/2001/REC-SVG-20010904/DTD/svg10.dtd">
<svg version="1.0" xmlns="http://www.w3.org/2000/svg"
 width="152.000000pt" height="152.000000pt" viewBox="0 0 152.000000 152.000000"
 preserveAspectRatio="xMidYMid meet">
<metadata>
Created by potrace 1.14, written by Peter Selinger 2001-2017
</metadata>
<g transform="translate(0.000000,152.000000) scale(0.100000,-0.100000)"
fill="#000000" stroke="none">
<path d="M730 1295 c0 -43 -13 -45 -30 -5 -11 28 -29 40 -31 23 -3 -27 -11
-68 -14 -71 -2 -2 -9 13 -16 32 -8 23 -19 36 -31 36 -24 0 -23 -7 12 -85 32
-71 53 -81 58 -27 4 40 16 41 32 2 12 -30 24 -37 34 -22 2 4 8 40 11 80 7 63
6 72 -9 72 -12 0 -16 -9 -16 -35z"/>
<path d="M853 1250 c-24 -33 -43 -65 -43 -70 0 -15 27 -12 33 4 8 21 45 8 49
-17 2 -12 11 -23 21 -25 17 -3 18 3 16 70 -2 66 -11 98 -28 98 -3 0 -25 -27
-48 -60z m33 -37 c-11 -11 -17 4 -9 23 7 18 8 18 11 1 2 -10 1 -21 -2 -24z"/>
<path d="M475 1244 c-11 -8 -26 -19 -34 -23 -11 -7 -5 -22 28 -70 23 -33 47
-61 54 -61 20 1 70 47 58 54 -6 4 -19 2 -30 -3 -14 -8 -22 -7 -31 4 -10 12 -9
16 4 21 27 10 20 35 -8 28 -32 -8 -44 14 -17 32 12 9 19 20 16 25 -8 12 -17
11 -40 -7z"/>
<path d="M1013 1175 c-24 -30 -43 -58 -43 -63 0 -12 60 -55 68 -47 3 3 1 15
-6 26 -11 18 -8 26 22 68 27 36 33 50 24 59 -17 17 -19 16 -65 -43z"/>
<path d="M319 1091 c-16 -16 -29 -33 -29 -38 0 -14 119 -95 130 -88 16 10 12
25 -11 43 -19 17 -19 17 18 17 28 0 38 5 41 18 3 14 -4 17 -32 17 -29 0 -36 4
-36 20 0 17 -26 40 -45 40 -4 0 -20 -13 -36 -29z m50 -24 c6 -8 8 -17 5 -20
-9 -8 -44 11 -44 23 0 15 26 12 39 -3z"/>
<path d="M1128 1063 c-32 -20 -58 -42 -58 -49 0 -19 20 -28 33 -15 19 19 27
12 15 -13 -11 -25 -6 -56 10 -56 5 0 17 18 27 40 17 37 21 40 57 40 49 0 47
23 -3 30 -30 5 -32 7 -15 16 12 7 17 18 13 28 -9 22 -14 21 -79 -21z"/>
<path d="M915 958 c-2 -7 -5 -22 -7 -32 -2 -10 -15 -28 -31 -40 -25 -18 -31
-19 -60 -7 -62 25 -72 25 -86 -5 -11 -25 -10 -30 11 -46 13 -10 18 -18 11 -18
-6 0 -15 5 -18 10 -9 15 -32 12 -39 -6 -4 -10 3 -23 16 -35 l23 -19 -28 12
c-39 17 -58 -3 -31 -33 l19 -22 -24 13 c-25 13 -20 14 -139 -36 -48 -20 -67
-45 -58 -79 8 -32 62 -48 166 -49 71 -1 92 3 130 23 76 40 290 192 290 205 0
24 -13 26 -49 5 l-36 -21 29 25 c29 25 29 27 17 68 -20 67 -93 126 -106 87z"/>
<path d="M244 932 c-43 -28 -35 -91 15 -117 62 -32 111 -7 111 55 0 34 -4 42
-30 55 -31 16 -78 20 -96 7z m86 -50 c20 -16 20 -19 6 -31 -12 -10 -23 -10
-50 -1 -20 6 -38 16 -41 21 -20 31 49 40 85 11z"/>
<path d="M1215 893 c-33 -9 -62 -17 -63 -19 -2 -1 -1 -21 3 -43 4 -27 12 -41
22 -41 11 0 14 7 11 24 -3 16 0 27 9 30 20 8 20 8 26 -14 7 -28 27 -25 27 5 0
30 26 34 35 5 7 -23 25 -27 25 -6 0 33 -13 76 -24 75 -6 -1 -38 -8 -71 -16z"/>
<path d="M208 732 c-10 -2 -18 -12 -18 -23 0 -15 6 -19 33 -17 39 4 46 -25 7
-31 -26 -3 -42 -19 -34 -33 3 -4 39 -8 80 -8 67 0 74 2 74 20 0 16 -7 20 -36
20 -28 0 -35 3 -32 18 2 11 14 18 36 20 24 2 32 8 32 23 0 17 -6 19 -62 17
-35 -1 -71 -4 -80 -6z"/>
<path d="M1170 711 c0 -17 6 -21 33 -22 l32 0 -32 -16 c-19 -10 -33 -24 -33
-35 0 -22 13 -23 44 -3 21 14 24 14 36 0 20 -25 59 -19 70 11 9 23 14 73 8 75
-2 0 -38 2 -80 5 -74 6 -78 5 -78 -15z m130 -38 c0 -7 -9 -13 -19 -13 -23 0
-37 16 -19 22 24 8 38 5 38 -9z"/>
<path d="M301 546 c-7 -8 -16 -27 -20 -42 -4 -15 -13 -30 -19 -32 -9 -3 -11 4
-6 22 4 19 2 26 -9 26 -34 0 -27 -70 9 -84 25 -9 62 19 66 51 2 14 9 28 17 31
10 3 11 -3 6 -28 -6 -27 -4 -31 12 -28 22 4 29 48 13 78 -12 23 -52 27 -69 6z"/>
<path d="M1146 533 c-29 -59 22 -103 75 -64 31 23 49 27 49 11 0 -5 -7 -10
-15 -10 -9 0 -15 -9 -15 -21 0 -15 4 -19 16 -15 9 3 18 6 20 6 3 0 9 12 14 26
22 57 -39 87 -87 42 -17 -16 -26 -19 -34 -11 -8 8 -5 14 10 22 27 15 27 41 1
41 -11 0 -25 -12 -34 -27z"/>
<path d="M340 249 c0 -44 3 -59 13 -56 6 2 12 14 11 26 -1 28 10 27 26 -4 23
-44 40 -31 40 30 0 41 -4 55 -14 55 -9 0 -13 -7 -11 -20 5 -27 -3 -25 -27 5
-30 38 -38 31 -38 -36z"/>
<path d="M460 250 l0 -60 35 0 c19 0 35 5 35 10 0 6 -9 10 -20 10 -11 0 -20 7
-20 15 0 8 7 15 15 15 8 0 15 5 15 10 0 6 -7 10 -15 10 -20 0 -19 19 1 27 13
5 13 7 2 14 -7 5 -21 9 -30 9 -15 0 -18 -9 -18 -60z"/>
<path d="M556 301 c-8 -12 23 -111 34 -111 4 0 13 12 18 28 l10 27 7 -27 c11
-43 30 -33 43 23 14 61 15 69 3 69 -5 0 -13 -15 -17 -32 l-7 -33 -9 28 c-12
34 -26 35 -34 1 l-7 -26 -13 31 c-14 32 -19 37 -28 22z"/>
<path d="M757 304 c-3 -4 0 -19 8 -35 8 -15 15 -39 15 -54 0 -16 6 -25 15 -25
8 0 15 9 15 20 0 11 7 37 15 57 18 41 14 51 -9 28 -15 -15 -17 -15 -32 -1 -17
18 -18 18 -27 10z"/>
<path d="M875 296 c-21 -15 -23 -69 -4 -92 6 -8 24 -14 40 -14 48 0 66 63 29
100 -23 23 -39 25 -65 6z m49 -60 c-8 -27 -11 -29 -23 -21 -12 7 -15 58 -4 69
12 12 34 -27 27 -48z"/>
<path d="M987 303 c-4 -3 -7 -30 -7 -60 0 -40 4 -53 15 -53 8 0 15 8 15 18 1
16 1 16 14 0 7 -10 21 -18 31 -18 16 0 16 2 1 24 -10 15 -12 27 -6 31 17 10
11 44 -9 55 -23 12 -45 13 -54 3z m35 -45 c-9 -9 -12 -7 -12 12 0 19 3 21 12
12 9 -9 9 -15 0 -24z"/>
<path d="M1097 303 c-4 -3 -7 -30 -7 -60 0 -40 4 -53 15 -53 9 0 15 9 16 23
l0 22 11 -22 c6 -13 20 -23 31 -23 19 0 19 1 -1 32 -19 29 -19 33 -5 55 22 32
6 44 -17 13 l-20 -25 0 23 c0 22 -10 28 -23 15z"/>
</g>
</svg>
