<?xml version="1.0" encoding="utf-8"?>
<!-- Generator: Adobe Illustrator 26.0.2, SVG Export Plug-In . SVG Version: 6.00 Build 0)  -->
<svg version="1.1" id="ARTWORK" xmlns="http://www.w3.org/2000/svg" xmlns:xlink="http://www.w3.org/1999/xlink" x="0px" y="0px"
	 viewBox="0 0 285.1 273.1" style="enable-background:new 0 0 285.1 273.1;" xml:space="preserve">
<g>
	<g>
		<path d="M214.2,126.3c-1-1.5-2.5-1.8-4.1-3l-14.4,9c-0.6,0.3-1.4,0.4-1.8-0.1c-0.3-0.6-0.1-1.2,0.4-1.6l13.2-10.6
			c-1.4-4.3-1.9-12.8-6.6-19.8c-5.2-7.8-17.4-17.5-20.3-12.8c-2.1,3.3,0.6,14.9-10,20.6c-8,4.2-15,1.6-21.6-2.2
			c-4.6-2.6-7.9-6.2-11.5,1.2c-0.5,1.1-2,4.1-4.4,8.4l10.1,8.2c0.5,0.4,0.7,1.2,0.3,1.8c-0.5,0.7-1.4,0.6-1.8,0.3l-9.7-5.9
			c-0.6-0.4-1.4-0.2-1.7,0.4c-1.4,2.2-2.6,4.2-4.3,6.6l9.3,7.5c0.5,0.4,0.8,1.3,0.3,1.9c-0.5,0.5-1.4,0.5-1.8,0.2l-9.3-5.6
			c-0.6-0.3-1.3-0.2-1.7,0.3c-1.7,2.2-2.9,4.1-4.8,6.1l9.7,7.8c0.5,0.4,0.8,1.2,0.1,2c-0.6,0.7-1.6,0.4-2,0.1l-10.4-6.3
			c-0.5-0.3-1.1-0.2-1.5,0.1c-2.3,2.1-4.7,3.8-7.2,4.9c-6,2.8-39.9,7.7-31.8,26.8c4.2,9.9,40.1,10.7,45.3,10.7
			c13.7,0,27.3-5.2,55.2-25.4l38.1-26.2C213.2,131.6,216.3,129.4,214.2,126.3z"/>
	</g>
	<g>
		<g>
			<path d="M57.7,260.2v-14.6c0-0.7,0.2-0.8,0.9-0.8h3.2c0.8,0,0.9,0.3,0.9,0.9V271c0,0.6-0.2,0.9-0.9,0.9h-2.5
				c-0.9,0-1-0.1-1.5-0.8l-10.4-16.1v16c0,0.7-0.2,1-1,1h-3.1c-0.7,0-1-0.2-1-0.9v-25.3c0-0.8,0.4-0.9,1-0.9h3.7
				c0.8,0,1,0.2,1.5,0.8L57.7,260.2z"/>
			<path d="M77.1,260.1v7.3h8c0.6,0,1,0.1,1,1v2.6c0,0.8-0.2,1-1,1H71.5c-0.7,0-1.1-0.1-1.1-0.9v-25.1c0-0.8,0.2-1.1,1.1-1.2H85
				c0.7,0,1.1,0,1.1,0.8v2.6c0,0.9-0.4,1-1.1,1h-7.9v6.6h6.5c0.6,0,1,0,1,0.8v2.6c0,0.8-0.3,0.9-1,0.9H77.1z"/>
			<path d="M108.2,257.3l-4.1,13.7c-0.2,0.7-0.4,0.8-1.1,0.8h-2.2c-0.8,0-1-0.1-1.2-0.8l-6.9-25c-0.1-0.2-0.1-0.4-0.1-0.6
				c0-0.5,0.4-0.7,0.9-0.7h4.8c0.7,0,0.9,0.1,1.1,0.9l3.4,15.2l4.6-15.3c0.1-0.3,0.2-0.8,0.8-0.8h1.8c0.6,0,0.6,0.2,0.9,1l4.3,15.1
				l3.5-15.1c0.2-0.7,0.3-1,1-1h3.5c0.3,0,0.9,0,0.9,0.6c0,0.2-0.1,0.4-0.1,0.7l-6.7,25c-0.2,0.7-0.4,0.8-1,0.8h-2.4
				c-0.8,0-1-0.1-1.2-0.8L108.2,257.3z"/>
			<path d="M154.9,260v10.9c0,0.7-0.2,0.9-0.9,0.9h-5.1c-0.5,0-0.9-0.1-0.9-0.8v-11.3l-6.7-13.6c-0.2-0.4-0.3-0.5-0.3-0.8
				c0-0.6,0.6-0.6,0.9-0.6h5.5c0.7,0,0.9,0.1,1.2,0.8l3.8,8.4l4-8.4c0.3-0.7,0.5-0.9,1.2-0.9h3.7c0.3,0,0.7,0,0.7,0.5
				c0,0.2-0.1,0.4-0.3,0.9L154.9,260z"/>
			<path d="M177.6,272.5c-7,0-11.9-5.5-11.9-14.3c0-8.2,4.6-14.2,12.1-14.2c7.1,0,11.5,5.7,11.8,13.6
				C190,266.9,184.6,272.5,177.6,272.5z M177.6,248.4c-5,0-5,7.6-5,9.4c0,1.5,0.1,2.7,0.2,3.6c0.2,1.2,0.4,2.3,0.9,3.4
				c0.8,1.6,2.1,2.9,4,2.9c0.9,0,1.7-0.3,2.3-0.8c2-1.5,2.4-4.8,2.5-5.7c0.2-1.4,0.2-2.6,0.2-3.6C182.6,252.2,181,248.4,177.6,248.4
				z"/>
			<path d="M195.9,246.2c0-0.8,0.2-1,0.8-1.2c1-0.3,4.5-0.5,6.7-0.5c2.4,0,10.9,0,10.9,7.9c0,3.9-2.6,6.1-5.2,7.2l6.5,10.9
				c0.2,0.4,0.3,0.6,0.3,0.8c0,0.5-0.4,0.7-0.9,0.6h-5.1c-0.9,0-1.1-0.1-1.5-0.9l-4.7-9.3c-0.1-0.2-0.3-0.7-0.8-0.7
				c-0.6,0-0.6,0.6-0.6,0.8v9.1c0,0.7-0.2,1-1,1h-4.6c-0.6,0-0.9-0.1-0.9-0.8V246.2z M202.5,258c1.4,0.1,5.3,0.2,5.3-4.8
				c0-4.7-2.6-5-4.3-5c-0.2,0-0.5,0-1,0V258z"/>
			<path d="M233.9,256.3l8.6,14c0.2,0.3,0.3,0.6,0.3,0.8c0,0.5-0.5,0.7-0.9,0.7h-5.4c-0.9,0-1-0.1-1.4-0.8l-6.5-11.6v11.4
				c0,0.9-0.4,1-1,1H223c-0.7,0-1-0.2-1-1v-25.2c0-0.7,0.2-1,0.9-1h4.7c0.7,0,0.9,0.1,0.9,0.9v10.1l6.9-10.2
				c0.5-0.7,0.6-0.8,1.4-0.8h3.8c0.3,0,0.9,0,0.9,0.6c0,0.3-0.1,0.4-0.4,0.8L233.9,256.3z"/>
		</g>
	</g>
	<g>
		<path d="M36.4,203.4c-0.5,2.2-1.6,7.8-7.6,9.8c-6.6,2.2-11.6-1.4-13.7-7.4c-2.6-7.5,0.7-12.2,3.4-13.2c2-0.7,4,0.3,4.6,2.3
			c0.7,2.1-0.3,3.2-1.5,4.5c-0.8,0.9-2.5,2.7-1.7,4.9c0.6,1.7,2.4,2.6,4.4,1.9c2.7-0.9,3.1-2.9,4-8.9c0.7-4.1,1.6-9.9,8.4-12.2
			c7.5-2.5,12.4,2.2,14.5,8.1c2.9,8.3-1.4,13.3-4.6,14.4c-2.6,0.9-4.4-0.9-4.9-2.3c-0.8-2.4,0.8-4.1,2.1-5.5c1.1-1.1,2.8-2.9,2-5.3
			c-0.6-1.7-2.3-2.8-4.6-2c-2.9,1-3.3,3.2-4.1,7.6L36.4,203.4z"/>
		<path d="M27.5,151.5l0.3,9.2l14.8-0.4c0.9,0,1.1,0.3,1.2,1.2l0.2,6.4c0,1-0.2,1.3-1.2,1.4l-34.2,1c-1.2,0-1.2-0.7-1.2-1.2
			l-0.2-6.4c0-0.8,0.1-1.3,1.1-1.3l13.7-0.4l-0.3-9.2L8,152c-0.8,0-1.2-0.1-1.2-1.1l-0.2-6.6c0-1,0.2-1.2,1.2-1.3l34.2-1
			c1,0,1.1,0.3,1.2,1.2l0.2,6.4c0,1-0.3,1.2-1.3,1.3L27.5,151.5z"/>
		<path d="M49.6,115.3c-2.6,8.9-11.7,13.1-23,9.8c-10.7-3.1-16.6-11.2-13.8-20.7c2.7-9.1,11.7-12.5,22.1-9.9
			C47,97.5,52.2,106.4,49.6,115.3z M18.4,106.1c-1.9,6.4,7.9,9.3,10.3,10c1.9,0.6,3.6,0.9,4.8,1.1c1.6,0.3,3.2,0.4,4.8,0.1
			c2.4-0.4,4.5-1.6,5.2-3.9c0.3-1.1,0.2-2.3-0.2-3.2c-1.2-3.1-5.3-4.8-6.5-5.3c-1.7-0.8-3.3-1.2-4.6-1.6
			C25.1,101.2,19.6,101.8,18.4,106.1z"/>
		<path d="M30.9,69.3c-0.9-0.7-1-1.1-0.7-1.8c0.5-1.4,2.9-5.3,4.7-7.7c1.9-2.6,8.5-11.8,17.2-5.6c4.3,3,4.6,7.6,3.8,11.2l17,1.4
			c0.6,0,0.9,0.1,1.2,0.3c0.5,0.4,0.4,1,0,1.4l-4,5.5c-0.7,1-1,1.1-2.1,0.9L54,72.7c-0.3-0.1-1-0.1-1.3,0.3
			c-0.5,0.6,0.2,1.1,0.4,1.3l10,7.1c0.8,0.6,0.9,1,0.2,1.9l-3.6,5c-0.5,0.7-0.8,0.9-1.7,0.3L30.9,69.3z M49,71.3
			c1.2-1.5,4.3-5.5-1.1-9.4c-5.2-3.7-7.5-1-8.8,0.8c-0.2,0.2-0.4,0.5-0.7,1.1L49,71.3z"/>
		<path d="M82.6,41.5l5.5,8l8.8-5.9c0.7-0.5,1.2-0.6,1.8,0.3l2,2.9c0.6,0.9,0.5,1.2-0.4,1.8l-15,10.1c-0.7,0.5-1.3,0.7-1.9-0.2
			l-19-27.8c-0.6-0.9-0.6-1.4,0.4-2.1l14.9-10c0.7-0.5,1.2-0.8,1.8,0.1l2,2.9c0.7,1,0.3,1.4-0.4,1.9l-8.8,5.9l5,7.3l7.3-4.9
			c0.6-0.4,1.1-0.7,1.7,0.2l2,2.9c0.6,0.9,0.3,1.2-0.4,1.7L82.6,41.5z"/>
		<path d="M124.6,20.5l-2.2,19c-0.1,1-0.3,1.2-1.3,1.4l-2.9,0.5c-1,0.1-1.4,0.1-1.8-0.8L101.5,9.1c-0.2-0.3-0.3-0.5-0.3-0.8
			c-0.1-0.7,0.4-1,1-1.1l6.3-1.1c1-0.2,1.2-0.1,1.7,0.9l8,19.2l2.5-21.2c0.1-0.5,0.1-1.1,0.8-1.2l2.3-0.4c0.8-0.1,0.9,0.2,1.3,1.1
			l9.1,18.9l1.2-20.7c0.1-1,0.2-1.3,1.2-1.5l4.6-0.8c0.5-0.1,1.2-0.2,1.3,0.6c0,0.3,0,0.5,0,0.9l-3.2,34.4c-0.1,1-0.3,1.2-1.1,1.3
			l-3.1,0.5c-1,0.2-1.3,0.1-1.8-0.8L124.6,20.5z"/>
		<path d="M173.8,35.3l-9.5-2.9l-4.4,6.3c-0.5,0.7-0.9,0.9-1.8,0.6l-4.3-1.3c-0.5-0.1-0.9-0.4-0.8-1c0.1-0.2,0.2-0.3,0.5-0.8
			l21.3-28.6c0.6-0.7,0.9-0.9,1.8-0.6l3.9,1.2c0.9,0.3,1.1,0.5,1.1,1.5l1.5,35.6c0,0.3,0,0.5-0.1,0.7c-0.2,0.8-0.8,0.6-1.4,0.5
			l-6.5-2c-0.8-0.3-1.1-0.5-1.1-1.5L173.8,35.3z M173.7,30.2l0-11.9l-6.6,9.9L173.7,30.2z"/>
		<path d="M202.9,53.8l7.4,5.8c0.6,0.5,0.8,0.8,0.2,1.5l-2.5,3.1c-0.5,0.6-0.9,0.7-1.6,0.1L193,53.8c-0.7-0.6-0.7-1-0.2-1.7
			l21.3-26.6c0.5-0.7,1-0.6,1.6-0.1l5.2,4.1c0.5,0.4,0.9,0.8,0.3,1.6L202.9,53.8z"/>
		<path d="M242.2,76.8l-10,19.6c-0.2,0.5-0.4,0.8-0.7,1c-0.6,0.4-1.1-0.1-1.4-0.6l-3.8-6c-0.6-1-0.6-1.2-0.1-2.1l8.6-15.5l-13,8.1
			c-1.1,0.7-1.4,0.2-1.8-0.4l-3.3-5.1c-0.5-0.7-0.5-1.2,0.4-1.8L245.9,56c0.7-0.5,1.2-0.5,1.7,0.3l3.3,5.3c0.5,0.7,0.5,1.1-0.3,1.7
			l-11.5,7.2l16.5,0.5c1.1,0.1,1.3,0.1,1.9,1l2.7,4.2c0.2,0.3,0.6,1,0,1.4c-0.3,0.2-0.6,0.2-1.3,0.1L242.2,76.8z"/>
		<path d="M252.6,114.5l-9.5,2.4l2.6,10.2c0.2,0.8,0.2,1.3-0.9,1.6l-3.4,0.9c-1,0.3-1.3,0-1.6-1l-4.5-17.4c-0.2-0.8-0.3-1.4,0.8-1.7
			l32.8-8.3c1.1-0.2,1.5-0.1,1.9,1.1l4.5,17.3c0.2,0.8,0.3,1.4-0.7,1.7l-3.4,0.9c-1.2,0.3-1.4-0.2-1.7-1.1l-2.6-10.1l-8.6,2.2
			l2.2,8.4c0.2,0.7,0.3,1.3-0.8,1.5l-3.4,0.9c-1.1,0.3-1.3-0.1-1.5-1L252.6,114.5z"/>
		<path d="M276.5,145.5c1.1,0.1,1.4,0.4,1.6,1.1c0.4,1.4,0.5,6,0.4,8.9c-0.1,3.2-0.5,14.5-11.2,14.1c-5.2-0.2-8.1-3.8-9.4-7.3
			l-15,8.1c-0.5,0.3-0.8,0.4-1.1,0.4c-0.7,0-0.9-0.6-0.8-1.2l0.2-6.7c0-1.2,0.2-1.5,1.3-2l12.8-5.8c0.3-0.1,0.9-0.4,0.9-1
			c0-0.8-0.7-0.8-1.1-0.8l-12.3-0.4c-1-0.1-1.3-0.4-1.2-1.4l0.2-6.1c0-0.8,0.2-1.2,1.2-1.2L276.5,145.5z M260.3,153.7
			c-0.2,1.9-0.5,7,6.2,7.2c6.4,0.2,6.8-3.3,6.9-5.5c0-0.3,0-0.7,0-1.3L260.3,153.7z"/>
		<path d="M251.8,194.3c1.7-1.4,6.1-5.1,12.1-3.1c6.6,2.2,8.3,8.2,6.2,14.2c-2.6,7.5-8.1,9.2-10.9,8.3c-2-0.7-2.9-2.7-2.2-4.7
			c0.7-2.1,2.2-2.3,3.9-2.7c1.2-0.2,3.6-0.7,4.4-2.8c0.6-1.7-0.3-3.5-2.3-4.2c-2.7-0.9-4.2,0.4-8.7,4.6c-3.1,2.9-7.4,6.8-14.2,4.5
			c-7.4-2.5-8.4-9.3-6.4-15.2c2.9-8.2,9.3-9.7,12.6-8.6c2.6,0.9,2.9,3.4,2.4,4.8c-0.8,2.4-3.2,2.8-5.1,3.1c-1.5,0.2-4,0.6-4.8,3
			c-0.6,1.7,0.1,3.6,2.4,4.4c2.9,1,4.6-0.5,8-3.5L251.8,194.3z"/>
	</g>
</g>
</svg>
